<mxfile host="app.diagrams.net" modified="2022-03-05T04:08:50.093Z" agent="5.0 (Windows NT 10.0; Win64; x64) AppleWebKit/537.36 (KHTML, like Gecko) Chrome/99.0.4844.51 Safari/537.36" etag="TgwvP-G1w_uOlkUC00OS" version="16.6.5" type="github">
  <diagram id="sknYTzCvkVmYRlzFnFaL" name="Page-1">
    <mxGraphModel dx="1279" dy="666" grid="1" gridSize="10" guides="1" tooltips="1" connect="1" arrows="1" fold="1" page="1" pageScale="1" pageWidth="1169" pageHeight="827" background="#ffffff" math="0" shadow="0">
      <root>
        <mxCell id="0" />
        <mxCell id="1" parent="0" />
        <mxCell id="1-wrnnb3XlAdEwyxX-QI-51" value="&lt;font color=&quot;#000000&quot;&gt;AREA 0&lt;/font&gt;" style="verticalLabelPosition=top;verticalAlign=bottom;html=1;shape=mxgraph.basic.arc;startAngle=0.2650329698675473;endAngle=0.2566973048516979;labelBackgroundColor=none;labelBorderColor=default;fontFamily=Verdana;fontSize=13;fillColor=#0050ef;strokeColor=#001DBC;fontColor=#ffffff;labelPosition=center;align=center;" parent="1" vertex="1">
          <mxGeometry x="377.93" y="132.8" width="360.34" height="467.2" as="geometry" />
        </mxCell>
        <mxCell id="pt05N7h5kJUxa7GFKh1O-3" value="&lt;font style=&quot;font-size: 13px&quot;&gt;&lt;span style=&quot;background-color: rgb(230 , 255 , 204)&quot;&gt;MPLS&amp;nbsp; Cloud&lt;br&gt;LDP Sync&lt;/span&gt;&lt;br&gt;&lt;/font&gt;" style="ellipse;shape=cloud;whiteSpace=wrap;html=1;fontSize=11;fillColor=#fff2cc;strokeColor=#d6b656;" vertex="1" parent="1">
          <mxGeometry x="370" y="190" width="380" height="336.4" as="geometry" />
        </mxCell>
        <mxCell id="1-wrnnb3XlAdEwyxX-QI-50" value="" style="verticalLabelPosition=top;verticalAlign=bottom;html=1;shape=mxgraph.basic.arc;startAngle=0.2566276223066356;endAngle=0.24502802608820537;labelBackgroundColor=#EBFEFF;labelBorderColor=default;fontFamily=Verdana;fontSize=13;fillColor=#fff2cc;strokeColor=#d6b656;strokeWidth=1;labelPosition=center;align=center;shadow=0;sketch=1;gradientColor=#3399FF;" parent="1" vertex="1">
          <mxGeometry x="50" y="160" width="320" height="441.3" as="geometry" />
        </mxCell>
        <mxCell id="1-wrnnb3XlAdEwyxX-QI-52" value="" style="verticalLabelPosition=top;verticalAlign=bottom;html=1;shape=mxgraph.basic.arc;startAngle=0.25;endAngle=0.23729466316694206;labelBackgroundColor=none;labelBorderColor=default;fontFamily=Verdana;fontSize=13;fillColor=#ffff88;strokeColor=#36393d;gradientColor=#C4FF8A;labelPosition=center;align=center;rotation=-180;" parent="1" vertex="1">
          <mxGeometry x="740" y="150" width="340" height="460.79" as="geometry" />
        </mxCell>
        <mxCell id="1-wrnnb3XlAdEwyxX-QI-8" value="RT7&lt;br&gt;(Finance)&lt;br&gt;4.4.4.4/32" style="image;html=1;image=img/lib/clip_art/networking/Router_Icon_128x128.png;sketch=0;fillColor=#f5f5f5;fontColor=#333333;strokeColor=default;fontSize=13;fontFamily=Verdana;whiteSpace=wrap;spacing=0;strokeWidth=0;backgroundOutline=0;comic=0;enumerate=0;metaEdit=0;fixDash=1;snapToPoint=1;fontStyle=0;verticalAlign=middle;labelPosition=center;verticalLabelPosition=middle;align=center;labelBorderColor=default;labelBackgroundColor=#EBFEFF;" parent="1" vertex="1">
          <mxGeometry x="100.00827586206897" y="413.99811023622044" width="75.86206896551724" height="74.96062992125984" as="geometry" />
        </mxCell>
        <mxCell id="1-wrnnb3XlAdEwyxX-QI-9" value="RT4&lt;br&gt;(R&amp;amp;D)&lt;br&gt;4.4.4.4/32" style="image;html=1;image=img/lib/clip_art/networking/Router_Icon_128x128.png;sketch=0;fillColor=#f5f5f5;fontColor=#333333;strokeColor=default;fontSize=13;fontFamily=Verdana;whiteSpace=wrap;spacing=0;strokeWidth=0;backgroundOutline=0;comic=0;enumerate=0;metaEdit=0;fixDash=1;snapToPoint=1;fontStyle=0;verticalAlign=middle;labelPosition=center;verticalLabelPosition=middle;align=center;labelBorderColor=default;labelBackgroundColor=#EBFEFF;" parent="1" vertex="1">
          <mxGeometry x="100.00379310344826" y="259.9959055118111" width="75.86206896551724" height="74.96062992125984" as="geometry" />
        </mxCell>
        <mxCell id="pt05N7h5kJUxa7GFKh1O-16" style="edgeStyle=elbowEdgeStyle;rounded=0;orthogonalLoop=1;jettySize=auto;html=1;fontSize=10;fontColor=#FF0000;endArrow=diamond;endFill=1;strokeWidth=1;startArrow=diamond;startFill=1;labelPosition=right;verticalLabelPosition=middle;align=right;verticalAlign=middle;spacing=0;" edge="1" parent="1">
          <mxGeometry relative="1" as="geometry">
            <mxPoint x="400" y="395" as="sourcePoint" />
            <mxPoint x="725.87" y="400" as="targetPoint" />
            <Array as="points">
              <mxPoint x="560" y="450" />
            </Array>
          </mxGeometry>
        </mxCell>
        <mxCell id="pt05N7h5kJUxa7GFKh1O-17" value="&amp;nbsp;RT1&amp;lt;-&amp;gt; RT3&lt;br style=&quot;font-size: 13px;&quot;&gt;MP-BGP" style="edgeLabel;html=1;align=center;verticalAlign=middle;resizable=0;points=[];fontSize=13;fontColor=#000000;labelBorderColor=default;fontStyle=0;labelBackgroundColor=#99FF33;" vertex="1" connectable="0" parent="pt05N7h5kJUxa7GFKh1O-16">
          <mxGeometry x="-0.1712" relative="1" as="geometry">
            <mxPoint x="22" as="offset" />
          </mxGeometry>
        </mxCell>
        <mxCell id="1-wrnnb3XlAdEwyxX-QI-10" value="RT1&lt;br&gt;lo&lt;br style=&quot;font-size: 13px&quot;&gt;1.1.1.1/32" style="image;html=1;image=img/lib/clip_art/networking/Router_Icon_128x128.png;sketch=0;fillColor=#f5f5f5;fontColor=#333333;strokeColor=default;fontSize=13;fontFamily=Verdana;whiteSpace=wrap;spacing=0;strokeWidth=0;backgroundOutline=0;comic=0;enumerate=0;metaEdit=0;fixDash=1;snapToPoint=1;fontStyle=0;verticalAlign=middle;align=center;labelPosition=center;verticalLabelPosition=middle;labelBorderColor=default;labelBackgroundColor=#FFD966;" parent="1" vertex="1">
          <mxGeometry x="330.0044827586207" y="339.03708661417323" width="75.86206896551724" height="74.96062992125984" as="geometry" />
        </mxCell>
        <mxCell id="1-wrnnb3XlAdEwyxX-QI-28" style="edgeStyle=elbowEdgeStyle;rounded=1;orthogonalLoop=1;jettySize=auto;html=1;exitX=1;exitY=0.5;exitDx=0;exitDy=0;entryX=0.5;entryY=1;entryDx=0;entryDy=0;startArrow=none;startFill=0;endArrow=none;endFill=0;fontFamily=Verdana;fontSize=13;fontStyle=0;spacing=0;verticalAlign=middle;labelBorderColor=default;labelBackgroundColor=#EBFEFF;" parent="1" source="1-wrnnb3XlAdEwyxX-QI-8" target="1-wrnnb3XlAdEwyxX-QI-10" edge="1">
          <mxGeometry relative="1" as="geometry">
            <Array as="points">
              <mxPoint x="358.9655172413793" y="470.11811023622045" />
            </Array>
          </mxGeometry>
        </mxCell>
        <mxCell id="1-wrnnb3XlAdEwyxX-QI-38" value="192.168.1.4" style="edgeLabel;html=1;align=center;verticalAlign=middle;resizable=0;points=[];fontSize=13;fontFamily=Verdana;fontStyle=0;labelBorderColor=default;labelBackgroundColor=#EBFEFF;" parent="1-wrnnb3XlAdEwyxX-QI-28" vertex="1" connectable="0">
          <mxGeometry x="-0.5351" relative="1" as="geometry">
            <mxPoint x="-9" as="offset" />
          </mxGeometry>
        </mxCell>
        <mxCell id="1-wrnnb3XlAdEwyxX-QI-39" value="VRF BLUE -192.168.1.2" style="edgeLabel;html=1;align=center;verticalAlign=middle;resizable=0;points=[];fontSize=13;fontFamily=Verdana;fontStyle=0;labelBorderColor=default;labelBackgroundColor=#6666FF;" parent="1-wrnnb3XlAdEwyxX-QI-28" vertex="1" connectable="0">
          <mxGeometry x="0.7045" y="-3" relative="1" as="geometry">
            <mxPoint x="-22" y="-25" as="offset" />
          </mxGeometry>
        </mxCell>
        <mxCell id="1-wrnnb3XlAdEwyxX-QI-25" style="edgeStyle=elbowEdgeStyle;rounded=1;orthogonalLoop=1;jettySize=auto;html=1;exitX=1;exitY=0.5;exitDx=0;exitDy=0;startArrow=none;startFill=0;endArrow=none;endFill=0;entryX=0.395;entryY=0.146;entryDx=0;entryDy=0;fontFamily=Verdana;fontSize=13;fontStyle=0;spacing=0;verticalAlign=middle;labelBorderColor=default;labelBackgroundColor=#EBFEFF;entryPerimeter=0;" parent="1" source="1-wrnnb3XlAdEwyxX-QI-9" target="1-wrnnb3XlAdEwyxX-QI-10" edge="1">
          <mxGeometry relative="1" as="geometry">
            <Array as="points">
              <mxPoint x="358.9655172413793" y="320.1968503937008" />
            </Array>
          </mxGeometry>
        </mxCell>
        <mxCell id="1-wrnnb3XlAdEwyxX-QI-26" value="192.168.1.4" style="edgeLabel;html=1;align=center;verticalAlign=middle;resizable=0;points=[];fontFamily=Verdana;fontSize=13;fontStyle=0;spacing=0;labelBorderColor=default;labelBackgroundColor=#EBFEFF;" parent="1-wrnnb3XlAdEwyxX-QI-25" vertex="1" connectable="0">
          <mxGeometry x="-0.2429" y="-1" relative="1" as="geometry">
            <mxPoint x="-44" y="-5" as="offset" />
          </mxGeometry>
        </mxCell>
        <mxCell id="1-wrnnb3XlAdEwyxX-QI-27" value="VRF RED - 192.168.1.1" style="edgeLabel;html=1;align=center;verticalAlign=middle;resizable=0;points=[];fontFamily=Verdana;fontSize=13;fontStyle=0;spacing=0;labelBorderColor=default;labelBackgroundColor=#FF6666;" parent="1-wrnnb3XlAdEwyxX-QI-25" vertex="1" connectable="0">
          <mxGeometry x="0.6429" y="4" relative="1" as="geometry">
            <mxPoint x="-23" y="32" as="offset" />
          </mxGeometry>
        </mxCell>
        <mxCell id="1-wrnnb3XlAdEwyxX-QI-11" value="RT2&lt;br&gt;lo&lt;br style=&quot;font-size: 13px&quot;&gt;2.2.2.2/32" style="image;html=1;image=img/lib/clip_art/networking/Router_Icon_128x128.png;sketch=0;fillColor=#f5f5f5;fontColor=#333333;strokeColor=default;fontSize=13;fontFamily=Verdana;whiteSpace=wrap;spacing=0;strokeWidth=0;backgroundOutline=0;comic=0;enumerate=0;metaEdit=0;fixDash=1;snapToPoint=1;fontStyle=0;verticalAlign=middle;labelPosition=center;verticalLabelPosition=middle;align=center;labelBorderColor=default;labelBackgroundColor=#66FFB3;" parent="1" vertex="1">
          <mxGeometry x="522.0724137931035" y="264.075905511811" width="75.86206896551724" height="74.96062992125984" as="geometry" />
        </mxCell>
        <mxCell id="1-wrnnb3XlAdEwyxX-QI-29" style="edgeStyle=elbowEdgeStyle;rounded=1;orthogonalLoop=1;jettySize=auto;html=1;startArrow=none;startFill=0;endArrow=none;endFill=0;fontFamily=Verdana;fontSize=13;fontStyle=0;spacing=0;verticalAlign=middle;labelBorderColor=default;labelBackgroundColor=#EBFEFF;exitX=1;exitY=0.5;exitDx=0;exitDy=0;" parent="1" source="1-wrnnb3XlAdEwyxX-QI-10" target="1-wrnnb3XlAdEwyxX-QI-11" edge="1">
          <mxGeometry relative="1" as="geometry">
            <Array as="points">
              <mxPoint x="480" y="340" />
            </Array>
          </mxGeometry>
        </mxCell>
        <mxCell id="1-wrnnb3XlAdEwyxX-QI-42" value="10.0.0.1" style="edgeLabel;html=1;align=center;verticalAlign=middle;resizable=0;points=[];fontSize=13;fontFamily=Verdana;fontStyle=0;labelBorderColor=default;labelBackgroundColor=#EBFEFF;" parent="1-wrnnb3XlAdEwyxX-QI-29" vertex="1" connectable="0">
          <mxGeometry x="-0.3452" y="2" relative="1" as="geometry">
            <mxPoint x="-29" y="-5" as="offset" />
          </mxGeometry>
        </mxCell>
        <mxCell id="1-wrnnb3XlAdEwyxX-QI-43" value="10.0.0.2" style="edgeLabel;html=1;align=center;verticalAlign=middle;resizable=0;points=[];fontSize=13;fontFamily=Verdana;fontStyle=0;labelBorderColor=default;labelBackgroundColor=#EBFEFF;" parent="1-wrnnb3XlAdEwyxX-QI-29" vertex="1" connectable="0">
          <mxGeometry x="0.7088" y="2" relative="1" as="geometry">
            <mxPoint x="-2" y="-5" as="offset" />
          </mxGeometry>
        </mxCell>
        <mxCell id="1-wrnnb3XlAdEwyxX-QI-12" value="RT3&lt;br&gt;lo&lt;br style=&quot;font-size: 13px&quot;&gt;3.3.3.3/32" style="image;html=1;image=img/lib/clip_art/networking/Router_Icon_128x128.png;sketch=0;fillColor=#f5f5f5;fontColor=#333333;strokeColor=default;fontSize=13;fontFamily=Verdana;whiteSpace=wrap;spacing=0;strokeWidth=0;backgroundOutline=0;comic=0;enumerate=0;metaEdit=0;fixDash=1;snapToPoint=1;fontStyle=0;imageBackground=none;verticalAlign=middle;labelPosition=center;verticalLabelPosition=middle;align=center;labelBorderColor=default;labelBackgroundColor=#FFD966;" parent="1" vertex="1">
          <mxGeometry x="719.310344827586" y="348.3070866141732" width="75.86206896551724" height="74.96062992125984" as="geometry" />
        </mxCell>
        <mxCell id="1-wrnnb3XlAdEwyxX-QI-30" style="edgeStyle=elbowEdgeStyle;rounded=1;orthogonalLoop=1;jettySize=auto;html=1;exitX=1;exitY=0.5;exitDx=0;exitDy=0;startArrow=none;startFill=0;endArrow=none;endFill=0;fontFamily=Verdana;fontSize=13;fontStyle=0;spacing=0;verticalAlign=middle;labelBorderColor=default;labelBackgroundColor=#EBFEFF;" parent="1" source="1-wrnnb3XlAdEwyxX-QI-11" target="1-wrnnb3XlAdEwyxX-QI-12" edge="1">
          <mxGeometry relative="1" as="geometry">
            <Array as="points">
              <mxPoint x="660" y="330" />
            </Array>
          </mxGeometry>
        </mxCell>
        <mxCell id="1-wrnnb3XlAdEwyxX-QI-44" value="10.0.1.2" style="edgeLabel;html=1;align=center;verticalAlign=middle;resizable=0;points=[];fontSize=13;fontFamily=Verdana;fontStyle=0;labelBorderColor=default;labelBackgroundColor=#EBFEFF;rotation=0;" parent="1-wrnnb3XlAdEwyxX-QI-30" vertex="1" connectable="0">
          <mxGeometry x="-0.6749" y="2" relative="1" as="geometry">
            <mxPoint x="-10" y="-5" as="offset" />
          </mxGeometry>
        </mxCell>
        <mxCell id="1-wrnnb3XlAdEwyxX-QI-45" value="10.0.1.3" style="edgeLabel;html=1;align=center;verticalAlign=middle;resizable=0;points=[];fontSize=13;fontFamily=Verdana;fontStyle=0;labelBorderColor=default;labelBackgroundColor=#EBFEFF;" parent="1-wrnnb3XlAdEwyxX-QI-30" vertex="1" connectable="0">
          <mxGeometry x="0.7954" y="-1" relative="1" as="geometry">
            <mxPoint x="-8" y="-7" as="offset" />
          </mxGeometry>
        </mxCell>
        <mxCell id="1-wrnnb3XlAdEwyxX-QI-13" value="RT5&lt;br&gt;(R&amp;amp;D)&lt;br&gt;6.6.6.6/32" style="image;html=1;image=img/lib/clip_art/networking/Router_Icon_128x128.png;sketch=0;fillColor=#f5f5f5;fontColor=#333333;strokeColor=default;fontSize=13;fontFamily=Verdana;whiteSpace=wrap;spacing=0;strokeWidth=0;backgroundOutline=0;comic=0;enumerate=0;metaEdit=0;fixDash=1;snapToPoint=1;fontStyle=0;verticalAlign=middle;labelPosition=center;verticalLabelPosition=middle;align=center;labelBorderColor=default;labelBackgroundColor=#EBFEFF;" parent="1" vertex="1">
          <mxGeometry x="960.0010344827587" y="239.99582677165355" width="75.86206896551724" height="74.96062992125984" as="geometry" />
        </mxCell>
        <mxCell id="1-wrnnb3XlAdEwyxX-QI-32" style="edgeStyle=elbowEdgeStyle;rounded=1;orthogonalLoop=1;jettySize=auto;html=1;entryX=0;entryY=0.5;entryDx=0;entryDy=0;startArrow=none;startFill=0;endArrow=none;endFill=0;fontFamily=Verdana;fontSize=13;fontStyle=0;spacing=0;verticalAlign=middle;labelBorderColor=default;labelBackgroundColor=#EBFEFF;" parent="1" source="1-wrnnb3XlAdEwyxX-QI-12" target="1-wrnnb3XlAdEwyxX-QI-13" edge="1">
          <mxGeometry relative="1" as="geometry">
            <Array as="points">
              <mxPoint x="776.2068965517241" y="310.82677165354335" />
            </Array>
          </mxGeometry>
        </mxCell>
        <mxCell id="1-wrnnb3XlAdEwyxX-QI-36" value="192.168.2.4" style="edgeLabel;html=1;align=center;verticalAlign=middle;resizable=0;points=[];fontSize=13;fontFamily=Verdana;fontStyle=0;labelBorderColor=default;labelBackgroundColor=#EBFEFF;" parent="1-wrnnb3XlAdEwyxX-QI-32" vertex="1" connectable="0">
          <mxGeometry x="0.5196" y="1" relative="1" as="geometry">
            <mxPoint x="21" as="offset" />
          </mxGeometry>
        </mxCell>
        <mxCell id="1-wrnnb3XlAdEwyxX-QI-41" value="VRF RED - 192.168.2.1" style="edgeLabel;html=1;align=center;verticalAlign=middle;resizable=0;points=[];fontSize=13;fontFamily=Verdana;fontStyle=0;labelBorderColor=default;labelBackgroundColor=#FF3333;" parent="1-wrnnb3XlAdEwyxX-QI-32" vertex="1" connectable="0">
          <mxGeometry x="-0.7456" y="1" relative="1" as="geometry">
            <mxPoint x="45" y="34" as="offset" />
          </mxGeometry>
        </mxCell>
        <mxCell id="1-wrnnb3XlAdEwyxX-QI-14" value="RT6&lt;br&gt;(Finance)&lt;br&gt;6.6.6.6/32" style="image;html=1;image=img/lib/clip_art/networking/Router_Icon_128x128.png;sketch=0;fillColor=#f5f5f5;fontColor=#333333;strokeColor=default;fontSize=13;fontFamily=Verdana;whiteSpace=wrap;spacing=0;strokeWidth=0;backgroundOutline=0;comic=0;enumerate=0;metaEdit=0;fixDash=1;snapToPoint=1;fontStyle=0;verticalAlign=middle;labelPosition=center;verticalLabelPosition=middle;align=center;labelBorderColor=default;labelBackgroundColor=#EBFEFF;" parent="1" vertex="1">
          <mxGeometry x="970.0010344827587" y="439.99818897637795" width="75.86206896551724" height="74.96062992125984" as="geometry" />
        </mxCell>
        <mxCell id="1-wrnnb3XlAdEwyxX-QI-33" style="edgeStyle=elbowEdgeStyle;rounded=1;orthogonalLoop=1;jettySize=auto;html=1;startArrow=none;startFill=0;endArrow=none;endFill=0;fontFamily=Verdana;fontSize=13;fontStyle=0;spacing=0;verticalAlign=middle;labelBorderColor=default;labelBackgroundColor=#EBFEFF;" parent="1" source="1-wrnnb3XlAdEwyxX-QI-12" target="1-wrnnb3XlAdEwyxX-QI-14" edge="1">
          <mxGeometry relative="1" as="geometry">
            <Array as="points">
              <mxPoint x="776.2068965517241" y="432.6377952755906" />
            </Array>
          </mxGeometry>
        </mxCell>
        <mxCell id="1-wrnnb3XlAdEwyxX-QI-37" value="192.168.2.4" style="edgeLabel;html=1;align=center;verticalAlign=middle;resizable=0;points=[];fontSize=13;fontFamily=Verdana;fontStyle=0;labelBorderColor=default;labelBackgroundColor=#EBFEFF;" parent="1-wrnnb3XlAdEwyxX-QI-33" vertex="1" connectable="0">
          <mxGeometry x="0.4455" y="2" relative="1" as="geometry">
            <mxPoint x="34" as="offset" />
          </mxGeometry>
        </mxCell>
        <mxCell id="1-wrnnb3XlAdEwyxX-QI-40" value="VRF - BLUE 192.168.2.2" style="edgeLabel;html=1;align=center;verticalAlign=middle;resizable=0;points=[];fontSize=13;fontFamily=Verdana;fontStyle=0;labelBorderColor=default;labelBackgroundColor=#6666FF;" parent="1-wrnnb3XlAdEwyxX-QI-33" vertex="1" connectable="0">
          <mxGeometry x="-0.6696" relative="1" as="geometry">
            <mxPoint x="54" y="-37" as="offset" />
          </mxGeometry>
        </mxCell>
        <mxCell id="tWQro1e0gUqb8IQQtBnc-14" value="ABR&lt;br style=&quot;font-size: 11px;&quot;&gt;&amp;nbsp;Router&lt;br style=&quot;font-size: 11px;&quot;&gt;(PE router)" style="image;html=1;image=img/lib/clip_art/networking/Router_Icon_128x128.png;sketch=0;fillColor=#f5f5f5;fontColor=#333333;strokeColor=default;fontSize=11;fontFamily=Verdana;whiteSpace=wrap;spacing=0;strokeWidth=0;backgroundOutline=0;comic=0;enumerate=0;metaEdit=0;fixDash=1;snapToPoint=1;fontStyle=0;imageBackground=none;verticalAlign=middle;labelPosition=center;verticalLabelPosition=middle;align=center;labelBorderColor=default;labelBackgroundColor=#FFD966;" parent="1" vertex="1">
          <mxGeometry x="180" y="610.79" width="100" height="69.21" as="geometry" />
        </mxCell>
        <mxCell id="tWQro1e0gUqb8IQQtBnc-15" value="Backbone&lt;br style=&quot;font-size: 11px;&quot;&gt;Router&lt;br style=&quot;font-size: 11px;&quot;&gt;(P router)" style="image;html=1;image=img/lib/clip_art/networking/Router_Icon_128x128.png;sketch=0;fillColor=#f5f5f5;fontColor=#333333;strokeColor=default;fontSize=11;fontFamily=Verdana;whiteSpace=wrap;spacing=0;strokeWidth=0;backgroundOutline=0;comic=0;enumerate=0;metaEdit=0;fixDash=1;snapToPoint=1;fontStyle=0;verticalAlign=middle;labelPosition=center;verticalLabelPosition=middle;align=center;labelBorderColor=default;labelBackgroundColor=#66FFB3;" parent="1" vertex="1">
          <mxGeometry x="180" y="680" width="105" height="80" as="geometry" />
        </mxCell>
        <mxCell id="pt05N7h5kJUxa7GFKh1O-1" value="CE&lt;br style=&quot;font-size: 11px;&quot;&gt;Routers" style="image;html=1;image=img/lib/clip_art/networking/Router_Icon_128x128.png;sketch=0;fillColor=#f5f5f5;fontColor=#333333;strokeColor=default;fontSize=11;fontFamily=Verdana;whiteSpace=wrap;spacing=0;strokeWidth=0;backgroundOutline=0;comic=0;enumerate=0;metaEdit=0;fixDash=1;snapToPoint=1;fontStyle=0;verticalAlign=middle;labelPosition=center;verticalLabelPosition=middle;align=center;labelBorderColor=default;labelBackgroundColor=#EBFEFF;" vertex="1" parent="1">
          <mxGeometry x="180" y="750" width="100" height="70" as="geometry" />
        </mxCell>
        <mxCell id="pt05N7h5kJUxa7GFKh1O-7" value="Area 2" style="text;html=1;strokeColor=none;fillColor=none;align=center;verticalAlign=middle;whiteSpace=wrap;rounded=0;fontSize=13;labelBorderColor=default;" vertex="1" parent="1">
          <mxGeometry x="180" y="200" width="60" height="30" as="geometry" />
        </mxCell>
        <mxCell id="pt05N7h5kJUxa7GFKh1O-8" value="Area 2" style="text;html=1;strokeColor=none;fillColor=none;align=center;verticalAlign=middle;whiteSpace=wrap;rounded=0;fontSize=13;labelBackgroundColor=none;labelBorderColor=default;" vertex="1" parent="1">
          <mxGeometry x="870" y="200" width="60" height="30" as="geometry" />
        </mxCell>
        <mxCell id="pt05N7h5kJUxa7GFKh1O-21" value="OSPF runs on all interfaces to exchange routes" style="text;html=1;strokeColor=none;fillColor=none;align=center;verticalAlign=middle;whiteSpace=wrap;rounded=0;labelBackgroundColor=#99FF33;labelBorderColor=default;fontSize=13;fontColor=#000000;" vertex="1" parent="1">
          <mxGeometry x="389.31" y="640" width="330" height="30" as="geometry" />
        </mxCell>
        <mxCell id="pt05N7h5kJUxa7GFKh1O-22" value="MP-BGP and OSPF Routes are exchanged and redistribute from RT1 to RT3" style="text;html=1;strokeColor=none;fillColor=none;align=center;verticalAlign=middle;whiteSpace=wrap;rounded=0;labelBackgroundColor=#99FF33;labelBorderColor=default;fontSize=13;fontColor=#000000;" vertex="1" parent="1">
          <mxGeometry x="393.1" y="690" width="330" height="30" as="geometry" />
        </mxCell>
      </root>
    </mxGraphModel>
  </diagram>
</mxfile>
